<?xml version="1.0" standalone="no"?>
<!DOCTYPE svg PUBLIC "-//W3C//DTD SVG 20010904//EN"
 "http://www.w3.org/TR/2001/REC-SVG-20010904/DTD/svg10.dtd">
<svg version="1.0" xmlns="http://www.w3.org/2000/svg"
 width="500.000000pt" height="500.000000pt" viewBox="0 0 500.000000 500.000000"
 preserveAspectRatio="xMidYMid meet">

<g transform="translate(0.000000,500.000000) scale(0.100000,-0.100000)"
fill="#000000" stroke="none">
<path d="M2305 4259 c-106 -13 -299 -60 -404 -99 -286 -105 -555 -294 -748
-524 -199 -236 -325 -497 -390 -805 -25 -115 -27 -145 -27 -351 0 -206 2 -236
27 -351 125 -589 503 -1057 1045 -1294 247 -109 472 -150 772 -142 280 7 473
54 725 177 204 99 351 206 511 371 236 246 396 554 466 901 20 98 23 143 23
338 0 194 -3 239 -23 331 -61 293 -163 523 -328 746 -81 109 -272 295 -384
375 -210 149 -443 251 -694 304 -98 20 -156 26 -306 29 -102 2 -221 -1 -265
-6z m1037 -1300 c115 -25 187 -73 172 -114 -13 -33 -37 -33 -114 -2 -145 59
-306 47 -428 -33 -176 -113 -240 -366 -145 -569 34 -72 122 -160 195 -194 111
-53 251 -54 378 -4 l55 22 0 145 0 145 -124 3 c-71 1 -130 7 -138 14 -19 16
-16 56 6 68 11 5 85 10 170 10 123 0 152 -3 165 -16 13 -13 16 -46 16 -209 l0
-194 -33 -25 c-75 -57 -193 -90 -317 -88 -242 3 -434 154 -495 388 -19 75 -19
204 0 279 47 180 194 326 371 369 73 18 195 20 266 5z m-1733 -8 c9 -5 102
-138 206 -295 105 -157 193 -284 197 -283 4 1 93 130 199 287 105 157 197 288
203 292 17 12 33 9 50 -8 14 -14 16 -73 16 -503 0 -365 -3 -490 -12 -499 -16
-16 -53 -15 -67 1 -7 10 -12 141 -13 422 l-3 409 -178 -268 c-152 -229 -181
-267 -200 -264 -16 2 -66 69 -197 267 l-175 265 -3 -409 c-1 -281 -6 -412 -13
-422 -17 -19 -57 -16 -69 6 -6 13 -10 187 -10 497 0 430 2 479 17 496 18 20
27 22 52 9z"/>
</g>
</svg>
